IKResults
version=1
nRows=10
nColumns=40
inDegrees=yes

Units are S.I. units (second, meters, Newtons, ...)
Angles are in degrees.

endheader
time	pelvis_tilt	pelvis_list	pelvis_rotation	pelvis_tx	pelvis_ty	pelvis_tz	hip_flexion_r	hip_adduction_r	hip_rotation_r	knee_angle_r	knee_angle_r_beta	ankle_angle_r	subtalar_angle_r	mtp_angle_r	hip_flexion_l	hip_adduction_l	hip_rotation_l	knee_angle_l	knee_angle_l_beta	ankle_angle_l	subtalar_angle_l	mtp_angle_l	lumbar_extension	lumbar_bending	lumbar_rotation	arm_flex_r	arm_add_r	arm_rot_r	elbow_flex_r	pro_sup_r	wrist_flex_r	wrist_dev_r	arm_flex_l	arm_add_l	arm_rot_l	elbow_flex_l	pro_sup_l	wrist_flex_l	wrist_dev_l
      0.45000000	     17.45411960	     -4.33590366	      7.07045807	     -0.63596322	      0.95331904	     -1.44227375	     -8.40504787	      6.40031158	    -18.89305530	    -16.64033096	     -0.29042856	      4.11202626	     -1.60685375	      1.01715620	    -15.56899438	      7.97455321	     -1.46697347	    -56.47425684	     -0.98566172	     -3.04612753	     18.40045268	      9.45131200	    -22.79533475	      6.56323891	     -2.98371039	     -6.86454334	     -9.76327228	     -0.75425639	     19.97655804	     89.95437384	      0.00000000	      0.00000000	      7.27445806	      7.63460854	      9.04859332	     37.38071531	     89.95437384	      0.00000000	      0.00000000
      0.46000000	     17.65326311	     -4.11423066	      6.85287449	     -0.62595684	      0.95436288	     -1.44084148	     -9.56951317	      6.35350601	    -18.81279854	    -16.21507297	     -0.28300641	      4.54401335	     -1.09882934	      0.88713945	    -14.48564072	      7.64402061	     -1.28005426	    -57.55513047	     -1.00452653	     -1.98458950	     18.37294245	      9.46826860	    -23.10322825	      6.20244956	     -2.51281028	     -6.10032735	     -9.78653685	     -0.60298398	     20.39891340	     89.95437384	      0.00000000	      0.00000000	      6.93673812	      7.37394530	      9.52445467	     35.68768775	     89.95437384	      0.00000000	      0.00000000
      0.47000000	     17.80228210	     -3.89960120	      6.64606424	     -0.61584968	      0.95528650	     -1.43941865	    -10.74030048	      6.31048964	    -18.87967910	    -15.67680791	     -0.27361191	      4.93071304	     -0.54557211	      0.76262691	    -13.39861542	      7.30481173	     -1.15537125	    -58.37628249	     -1.01885833	     -0.83375043	     18.30164513	      9.51541839	    -23.32292116	      5.83761596	     -2.09835849	     -5.32393282	     -9.81710418	     -0.43230770	     20.84200238	     89.95437384	      0.00000000	      0.00000000	      6.55272122	      7.13602619	     10.06353638	     33.96356387	     89.95437384	      0.00000000	      0.00000000
      0.48000000	     17.88325034	     -3.61370140	      6.31197382	     -0.60611463	      0.95600675	     -1.43778607	    -11.68604628	      6.10016362	    -19.15571444	    -15.40975852	     -0.26895102	      5.26593497	     -0.42679786	      0.70526034	    -12.17680860	      6.95561386	     -0.70233383	    -58.99730360	     -1.02969720	     -0.22370761	     18.26419346	      9.40971327	    -23.55850938	      5.33643341	     -1.67766883	     -4.43063771	     -9.81792499	     -0.33380953	     21.27828784	     89.95437384	      0.00000000	      0.00000000	      5.90898367	      7.10137049	     10.19102284	     32.76353909	     89.95437384	      0.00000000	      0.00000000
      0.49000000	     17.89264415	     -3.36696059	      6.04813535	     -0.59605605	      0.95670001	     -1.43653162	    -12.77849119	      5.99473714	    -18.89663172	    -14.73594419	     -0.25719074	      5.71428911	      0.51480437	      0.53812049	    -11.08235750	      6.39549165	     -0.81139371	    -59.19735202	     -1.03318870	      1.27750948	     18.18306063	      9.40329992	    -23.58855213	      4.94414608	     -1.23721391	     -3.73381528	     -9.91351312	     -0.16308804	     21.87383117	     89.95437384	      0.00000000	      0.00000000	      5.66527153	      6.85915449	     10.84909432	     30.55012821	     89.95437384	      0.00000000	      0.00000000
      0.50000000	     17.85461645	     -3.09613624	      5.70246316	     -0.58630382	      0.95721019	     -1.43504329	    -13.66311165	      5.77496869	    -18.93813094	    -14.32237139	     -0.24997254	      6.12334967	      1.08721593	      0.40359695	     -9.88497287	      5.92094129	     -0.63014476	    -59.23182093	     -1.03379030	      2.24857821	     18.05744269	      9.34060197	    -23.63404652	      4.46110308	     -0.82581369	     -2.94234614	    -10.00300210	      0.12174701	     22.46268097	     89.95437384	      0.00000000	      0.00000000	      5.19679150	      6.79400829	     11.18996812	     28.80822394	     89.95437384	      0.00000000	      0.00000000
      0.51000000	     17.78389384	     -2.86829152	      5.37954836	     -0.57675181	      0.95749399	     -1.43352401	    -14.35031665	      5.56520631	    -19.09565528	    -14.16851158	     -0.24728718	      6.45939203	      1.20932638	      0.33184266	     -8.56500135	      5.61930713	     -0.22376033	    -59.16343300	     -1.03259670	      2.92404425	     18.00360629	      9.21024263	    -23.67877575	      4.01826517	     -0.52191828	     -2.09645982	    -10.04335278	      0.22795586	     23.12043593	     89.95437384	      0.00000000	      0.00000000	      4.43836498	      6.86681530	     11.25315062	     27.58255790	     89.95437384	      0.00000000	      0.00000000
      0.52000000	     17.73419349	     -2.51142345	      4.95532823	     -0.56700126	      0.95787182	     -1.43236804	    -15.18508304	      5.19596520	    -18.73877108	    -13.83439207	     -0.24145569	      6.94390976	      1.94489982	      0.13588328	     -7.52561389	      4.90173443	     -0.17635015	    -58.59379510	     -1.02265465	      4.13297935	     17.84002846	      9.06851947	    -23.69738263	      3.45626292	     -0.04030395	     -1.49561837	    -10.25361980	      0.45308591	     24.13340906	     89.95437384	      0.00000000	      0.00000000	      4.10631109	      6.72811628	     11.73306119	     25.56728588	     89.95437384	      0.00000000	      0.00000000
      0.53000000	     17.67141547	     -2.20959980	      4.63675256	     -0.55734451	      0.95803429	     -1.43108378	    -15.90816562	      4.89728254	    -18.52506065	    -13.69207657	     -0.23897182	      7.47844259	      2.32654955	     -0.03924705	     -6.39861137	      4.40691682	      0.00169595	    -57.93227108	     -1.01110887	      4.94396125	     17.66679559	      8.91893281	    -23.69060388	      2.93886241	      0.29930711	     -0.84188623	    -10.37808942	      0.59551133	     25.04979324	     89.95437384	      0.00000000	      0.00000000	      3.54448082	      6.76200723	     11.94627233	     24.01389503	     89.95437384	      0.00000000	      0.00000000
      0.54000000	     17.64731550	     -1.80675019	      3.98488489	     -0.54799464	      0.95827250	     -1.42961983	    -16.48143668	      4.34845023	    -18.09686875	    -13.87710164	     -0.24220111	      7.92450006	      2.53776936	     -0.24809698	     -5.43567713	      3.80172282	      0.59753730	    -56.95124286	     -0.99398670	      5.57746275	     17.61510169	      8.70091863	    -23.81496405	      2.23497550	      0.83520404	     -0.18360911	    -10.54726168	      0.66061552	     26.17775349	     89.95437384	      0.00000000	      0.00000000	      2.97967642	      6.75674378	     12.28102488	     22.54927241	     89.95437384	      0.00000000	      0.00000000
